<?xml version="1.0" encoding="utf-8"?>
<!-- Generator: Adobe Illustrator 26.2.1, SVG Export Plug-In . SVG Version: 6.00 Build 0)  -->
<svg version="1.1" id="Capa_1" xmlns="http://www.w3.org/2000/svg" xmlns:xlink="http://www.w3.org/1999/xlink" x="0px" y="0px"
	 viewBox="0 0 207 207" style="enable-background:new 0 0 207 207;" xml:space="preserve">
<style type="text/css">
	.st0{fill:#79C000;}
</style>
<path class="st0" d="M153,12.6v13.2h-9V8.2c-2.9-1.2-5.9-2.4-9-3.3v20.8h-9V2.5c-3-0.7-6-1.2-9-1.6v24.9h-9V0.1
	C106.5,0,105,0,103.5,0c-1.5,0-3,0-4.5,0.1v25.6h-9V0.9c-3,0.4-6,0.9-9,1.6v23.3h-9V4.9C69,5.9,66,7,63,8.2v17.5h-9V12.6
	C21.8,30.1,0,64.3,0,103.5c0,39.2,21.8,73.4,54,90.9v-12.9h9v17.3c2.9,1.2,5.9,2.4,9,3.3v-20.6h9v23c3,0.7,6,1.2,9,1.6v-24.6h9v25.4
	c1.5,0.1,3,0.1,4.5,0.1c1.5,0,3,0,4.5-0.1v-25.4h9v24.6c3-0.4,6-0.9,9-1.6v-23h9v20.6c3.1-1,6.1-2.1,9-3.3v-17.3h9v12.9
	c32.2-17.5,54-51.7,54-90.9C207,64.3,185.2,30.1,153,12.6z M152.4,118.9c-7.8,21.4-25.6,34.2-47.8,34.2c-24.4,0-50.7-19.6-50.7-51.2
	c0-13.8,5.5-26.7,15.4-36.2c9.4-9.1,22.2-14.3,35.1-14.3c16.8,0,39.4,9.1,47.9,34.9l0.6,1.9h-27.9l-0.4-0.7
	c-2.6-4.5-7.3-12.8-20.2-12.8c-16.7,0-25.4,13.9-25.4,27.6c0,15.7,11.3,27.6,26.4,27.6c7.8,0,14.2-4.1,19.3-12.2l0.4-0.7h27.9
	L152.4,118.9z"/>
</svg>
